<mxfile host="app.diagrams.net" modified="2023-04-13T05:08:14.949Z" agent="Mozilla/5.0 (Macintosh; Intel Mac OS X 10_15_7) AppleWebKit/537.36 (KHTML, like Gecko) Chrome/111.0.0.0 Safari/537.36" etag="-TsRscYJJPX8h6WH45eb" version="21.1.0" type="github">
  <diagram name="第 1 页" id="VUnH4nL3GlNkw8GlFlIy">
    <mxGraphModel dx="504" dy="239" grid="0" gridSize="10" guides="1" tooltips="1" connect="1" arrows="1" fold="1" page="1" pageScale="1" pageWidth="827" pageHeight="1169" math="0" shadow="0">
      <root>
        <mxCell id="0" />
        <mxCell id="1" parent="0" />
        <mxCell id="vUgW0jnhGMjPNoLwv_MM-33" value="" style="rounded=0;whiteSpace=wrap;html=1;" parent="1" vertex="1">
          <mxGeometry x="75" y="105" width="335" height="135" as="geometry" />
        </mxCell>
        <mxCell id="vUgW0jnhGMjPNoLwv_MM-1" value="" style="endArrow=classic;html=1;rounded=0;entryX=-0.1;entryY=0.5;entryDx=0;entryDy=0;entryPerimeter=0;" parent="1" target="vUgW0jnhGMjPNoLwv_MM-9" edge="1">
          <mxGeometry width="50" height="50" relative="1" as="geometry">
            <mxPoint x="80" y="280" as="sourcePoint" />
            <mxPoint x="640" y="280" as="targetPoint" />
          </mxGeometry>
        </mxCell>
        <mxCell id="vUgW0jnhGMjPNoLwv_MM-2" value="" style="endArrow=classic;html=1;rounded=0;" parent="1" target="vUgW0jnhGMjPNoLwv_MM-10" edge="1">
          <mxGeometry width="50" height="50" relative="1" as="geometry">
            <mxPoint x="80" y="360" as="sourcePoint" />
            <mxPoint x="640" y="360" as="targetPoint" />
          </mxGeometry>
        </mxCell>
        <mxCell id="vUgW0jnhGMjPNoLwv_MM-26" style="edgeStyle=orthogonalEdgeStyle;rounded=0;orthogonalLoop=1;jettySize=auto;html=1;" parent="1" source="vUgW0jnhGMjPNoLwv_MM-3" edge="1">
          <mxGeometry relative="1" as="geometry">
            <mxPoint x="135" y="281" as="targetPoint" />
          </mxGeometry>
        </mxCell>
        <mxCell id="vUgW0jnhGMjPNoLwv_MM-30" style="edgeStyle=orthogonalEdgeStyle;rounded=0;orthogonalLoop=1;jettySize=auto;html=1;" parent="1" source="vUgW0jnhGMjPNoLwv_MM-3" target="vUgW0jnhGMjPNoLwv_MM-27" edge="1">
          <mxGeometry relative="1" as="geometry" />
        </mxCell>
        <mxCell id="vUgW0jnhGMjPNoLwv_MM-3" value="Feat 1" style="text;html=1;align=center;verticalAlign=middle;resizable=0;points=[];autosize=1;strokeColor=#d79b00;fillColor=#ffe6cc;" parent="1" vertex="1">
          <mxGeometry x="105" y="180" width="60" height="30" as="geometry" />
        </mxCell>
        <mxCell id="vUgW0jnhGMjPNoLwv_MM-21" style="edgeStyle=orthogonalEdgeStyle;rounded=0;orthogonalLoop=1;jettySize=auto;html=1;entryX=0.011;entryY=0.478;entryDx=0;entryDy=0;entryPerimeter=0;" parent="1" source="vUgW0jnhGMjPNoLwv_MM-4" target="vUgW0jnhGMjPNoLwv_MM-20" edge="1">
          <mxGeometry relative="1" as="geometry">
            <Array as="points">
              <mxPoint x="260" y="134" />
            </Array>
          </mxGeometry>
        </mxCell>
        <mxCell id="vUgW0jnhGMjPNoLwv_MM-25" style="edgeStyle=orthogonalEdgeStyle;rounded=0;orthogonalLoop=1;jettySize=auto;html=1;" parent="1" source="vUgW0jnhGMjPNoLwv_MM-4" edge="1">
          <mxGeometry relative="1" as="geometry">
            <mxPoint x="260" y="281" as="targetPoint" />
          </mxGeometry>
        </mxCell>
        <mxCell id="vUgW0jnhGMjPNoLwv_MM-4" value="Feat 2" style="text;html=1;align=center;verticalAlign=middle;resizable=0;points=[];autosize=1;strokeColor=#d79b00;fillColor=#ffe6cc;" parent="1" vertex="1">
          <mxGeometry x="230" y="180" width="60" height="30" as="geometry" />
        </mxCell>
        <mxCell id="vUgW0jnhGMjPNoLwv_MM-22" style="edgeStyle=orthogonalEdgeStyle;rounded=0;orthogonalLoop=1;jettySize=auto;html=1;entryX=0.489;entryY=1.011;entryDx=0;entryDy=0;entryPerimeter=0;" parent="1" edge="1">
          <mxGeometry relative="1" as="geometry">
            <mxPoint x="331" y="180" as="sourcePoint" />
            <mxPoint x="330.34000000000003" y="150.33000000000004" as="targetPoint" />
          </mxGeometry>
        </mxCell>
        <mxCell id="vUgW0jnhGMjPNoLwv_MM-24" style="edgeStyle=orthogonalEdgeStyle;rounded=0;orthogonalLoop=1;jettySize=auto;html=1;" parent="1" source="vUgW0jnhGMjPNoLwv_MM-5" edge="1">
          <mxGeometry relative="1" as="geometry">
            <mxPoint x="330" y="279" as="targetPoint" />
          </mxGeometry>
        </mxCell>
        <mxCell id="vUgW0jnhGMjPNoLwv_MM-5" value="Feat 3" style="text;html=1;align=center;verticalAlign=middle;resizable=0;points=[];autosize=1;strokeColor=#d79b00;fillColor=#ffe6cc;" parent="1" vertex="1">
          <mxGeometry x="300" y="180" width="60" height="30" as="geometry" />
        </mxCell>
        <mxCell id="vUgW0jnhGMjPNoLwv_MM-9" value="dev：提测分支" style="text;html=1;align=left;verticalAlign=middle;resizable=0;points=[];autosize=1;strokeColor=none;fillColor=none;" parent="1" vertex="1">
          <mxGeometry x="636" y="269" width="97" height="26" as="geometry" />
        </mxCell>
        <mxCell id="vUgW0jnhGMjPNoLwv_MM-10" value="test/prod：回归分支" style="text;html=1;align=left;verticalAlign=middle;resizable=0;points=[];autosize=1;strokeColor=none;fillColor=none;" parent="1" vertex="1">
          <mxGeometry x="676" y="349" width="125" height="26" as="geometry" />
        </mxCell>
        <mxCell id="vUgW0jnhGMjPNoLwv_MM-16" value="" style="endArrow=classic;html=1;rounded=0;" parent="1" edge="1">
          <mxGeometry width="50" height="50" relative="1" as="geometry">
            <mxPoint x="414" y="360" as="sourcePoint" />
            <mxPoint x="414" y="280" as="targetPoint" />
          </mxGeometry>
        </mxCell>
        <mxCell id="vUgW0jnhGMjPNoLwv_MM-19" value="发布完成后 merge" style="edgeLabel;html=1;align=center;verticalAlign=middle;resizable=0;points=[];" parent="vUgW0jnhGMjPNoLwv_MM-16" vertex="1" connectable="0">
          <mxGeometry x="0.1417" y="2" relative="1" as="geometry">
            <mxPoint x="59" y="8" as="offset" />
          </mxGeometry>
        </mxCell>
        <mxCell id="vUgW0jnhGMjPNoLwv_MM-17" value="分批上线" style="text;html=1;align=center;verticalAlign=middle;resizable=0;points=[];autosize=1;strokeColor=none;fillColor=none;" parent="1" vertex="1">
          <mxGeometry x="225" y="375" width="70" height="30" as="geometry" />
        </mxCell>
        <mxCell id="vUgW0jnhGMjPNoLwv_MM-18" value="模块拆分" style="text;html=1;align=center;verticalAlign=middle;resizable=0;points=[];autosize=1;strokeColor=none;fillColor=none;" parent="1" vertex="1">
          <mxGeometry x="185" y="131" width="70" height="30" as="geometry" />
        </mxCell>
        <mxCell id="vUgW0jnhGMjPNoLwv_MM-23" style="edgeStyle=orthogonalEdgeStyle;rounded=0;orthogonalLoop=1;jettySize=auto;html=1;" parent="1" source="vUgW0jnhGMjPNoLwv_MM-20" edge="1">
          <mxGeometry relative="1" as="geometry">
            <mxPoint x="380" y="360" as="targetPoint" />
            <Array as="points">
              <mxPoint x="380" y="135" />
            </Array>
          </mxGeometry>
        </mxCell>
        <mxCell id="vUgW0jnhGMjPNoLwv_MM-20" value="release2" style="text;html=1;align=center;verticalAlign=middle;resizable=0;points=[];autosize=1;strokeColor=#d79b00;fillColor=#ffe6cc;" parent="1" vertex="1">
          <mxGeometry x="295" y="120" width="70" height="30" as="geometry" />
        </mxCell>
        <mxCell id="vUgW0jnhGMjPNoLwv_MM-29" style="edgeStyle=orthogonalEdgeStyle;rounded=0;orthogonalLoop=1;jettySize=auto;html=1;" parent="1" source="vUgW0jnhGMjPNoLwv_MM-27" edge="1">
          <mxGeometry relative="1" as="geometry">
            <mxPoint x="180" y="360" as="targetPoint" />
            <Array as="points">
              <mxPoint x="180" y="135" />
              <mxPoint x="180" y="360" />
            </Array>
          </mxGeometry>
        </mxCell>
        <mxCell id="vUgW0jnhGMjPNoLwv_MM-27" value="release1" style="text;html=1;align=center;verticalAlign=middle;resizable=0;points=[];autosize=1;strokeColor=#d79b00;fillColor=#ffe6cc;" parent="1" vertex="1">
          <mxGeometry x="100" y="120" width="70" height="30" as="geometry" />
        </mxCell>
        <mxCell id="vUgW0jnhGMjPNoLwv_MM-31" value="" style="endArrow=classic;html=1;rounded=0;" parent="1" edge="1">
          <mxGeometry width="50" height="50" relative="1" as="geometry">
            <mxPoint x="210" y="360" as="sourcePoint" />
            <mxPoint x="210" y="280" as="targetPoint" />
          </mxGeometry>
        </mxCell>
        <mxCell id="vUgW0jnhGMjPNoLwv_MM-32" value="发布完成后 merge" style="edgeLabel;html=1;align=center;verticalAlign=middle;resizable=0;points=[];" parent="vUgW0jnhGMjPNoLwv_MM-31" vertex="1" connectable="0">
          <mxGeometry x="0.1417" y="2" relative="1" as="geometry">
            <mxPoint x="62" y="6" as="offset" />
          </mxGeometry>
        </mxCell>
        <mxCell id="vUgW0jnhGMjPNoLwv_MM-34" value="一次迭代" style="text;html=1;align=center;verticalAlign=middle;resizable=0;points=[];autosize=1;strokeColor=none;fillColor=none;" parent="1" vertex="1">
          <mxGeometry x="75" y="75" width="70" height="30" as="geometry" />
        </mxCell>
        <mxCell id="vUgW0jnhGMjPNoLwv_MM-38" style="edgeStyle=orthogonalEdgeStyle;rounded=0;orthogonalLoop=1;jettySize=auto;html=1;" parent="1" source="vUgW0jnhGMjPNoLwv_MM-37" edge="1">
          <mxGeometry relative="1" as="geometry">
            <mxPoint x="550" y="361" as="targetPoint" />
            <Array as="points">
              <mxPoint x="550" y="361" />
            </Array>
          </mxGeometry>
        </mxCell>
        <mxCell id="vUgW0jnhGMjPNoLwv_MM-45" style="edgeStyle=orthogonalEdgeStyle;rounded=0;orthogonalLoop=1;jettySize=auto;html=1;" parent="1" source="vUgW0jnhGMjPNoLwv_MM-37" edge="1">
          <mxGeometry relative="1" as="geometry">
            <mxPoint x="550.0000000000001" y="282.78571428571433" as="targetPoint" />
          </mxGeometry>
        </mxCell>
        <mxCell id="vUgW0jnhGMjPNoLwv_MM-37" value="Hot fix" style="text;html=1;align=center;verticalAlign=middle;resizable=0;points=[];autosize=1;strokeColor=#d79b00;fillColor=#ffe6cc;" parent="1" vertex="1">
          <mxGeometry x="524" y="182" width="52" height="26" as="geometry" />
        </mxCell>
        <mxCell id="vUgW0jnhGMjPNoLwv_MM-41" value="" style="endArrow=classic;html=1;rounded=0;" parent="1" edge="1">
          <mxGeometry width="50" height="50" relative="1" as="geometry">
            <mxPoint x="576" y="362" as="sourcePoint" />
            <mxPoint x="576" y="282" as="targetPoint" />
          </mxGeometry>
        </mxCell>
        <mxCell id="vUgW0jnhGMjPNoLwv_MM-42" value="发布完成后 merge" style="edgeLabel;html=1;align=center;verticalAlign=middle;resizable=0;points=[];" parent="vUgW0jnhGMjPNoLwv_MM-41" vertex="1" connectable="0">
          <mxGeometry x="0.1417" y="2" relative="1" as="geometry">
            <mxPoint x="59" y="8" as="offset" />
          </mxGeometry>
        </mxCell>
        <mxCell id="vUgW0jnhGMjPNoLwv_MM-43" value="临时需求" style="text;html=1;align=center;verticalAlign=middle;resizable=0;points=[];autosize=1;strokeColor=none;fillColor=none;" parent="1" vertex="1">
          <mxGeometry x="517" y="146" width="66" height="26" as="geometry" />
        </mxCell>
        <mxCell id="Oi7I57l-YlHCTCRPrvz8-3" value="XGBoost" style="text;html=1;align=center;verticalAlign=middle;resizable=0;points=[];autosize=1;strokeColor=#d79b00;fillColor=#ffe6cc;" vertex="1" parent="1">
          <mxGeometry x="239" y="542" width="66" height="26" as="geometry" />
        </mxCell>
        <mxCell id="Oi7I57l-YlHCTCRPrvz8-5" value="Louvaine" style="text;html=1;align=center;verticalAlign=middle;resizable=0;points=[];autosize=1;strokeColor=#d79b00;fillColor=#ffe6cc;" vertex="1" parent="1">
          <mxGeometry x="239" y="591" width="67" height="26" as="geometry" />
        </mxCell>
        <mxCell id="Oi7I57l-YlHCTCRPrvz8-7" value="" style="endArrow=classic;html=1;rounded=0;entryX=0.502;entryY=0.038;entryDx=0;entryDy=0;entryPerimeter=0;" edge="1" parent="1" target="Oi7I57l-YlHCTCRPrvz8-5">
          <mxGeometry width="50" height="50" relative="1" as="geometry">
            <mxPoint x="272" y="569" as="sourcePoint" />
            <mxPoint x="486" y="645" as="targetPoint" />
          </mxGeometry>
        </mxCell>
        <mxCell id="Oi7I57l-YlHCTCRPrvz8-11" value="" style="endArrow=classic;html=1;rounded=0;" edge="1" parent="1">
          <mxGeometry width="50" height="50" relative="1" as="geometry">
            <mxPoint x="271.77" y="512" as="sourcePoint" />
            <mxPoint x="271.77" y="542" as="targetPoint" />
          </mxGeometry>
        </mxCell>
        <mxCell id="Oi7I57l-YlHCTCRPrvz8-12" value="训练集" style="text;html=1;align=center;verticalAlign=middle;resizable=0;points=[];autosize=1;strokeColor=none;fillColor=none;" vertex="1" parent="1">
          <mxGeometry x="245" y="484" width="54" height="26" as="geometry" />
        </mxCell>
        <mxCell id="Oi7I57l-YlHCTCRPrvz8-13" value="" style="edgeStyle=orthogonalEdgeStyle;rounded=0;orthogonalLoop=1;jettySize=auto;html=1;" edge="1" parent="1" source="Oi7I57l-YlHCTCRPrvz8-14" target="Oi7I57l-YlHCTCRPrvz8-17">
          <mxGeometry relative="1" as="geometry" />
        </mxCell>
        <mxCell id="Oi7I57l-YlHCTCRPrvz8-14" value="XGBoost" style="text;html=1;align=center;verticalAlign=middle;resizable=0;points=[];autosize=1;strokeColor=#d79b00;fillColor=#ffe6cc;" vertex="1" parent="1">
          <mxGeometry x="334" y="542" width="66" height="26" as="geometry" />
        </mxCell>
        <mxCell id="Oi7I57l-YlHCTCRPrvz8-15" value="" style="edgeStyle=orthogonalEdgeStyle;rounded=0;orthogonalLoop=1;jettySize=auto;html=1;" edge="1" parent="1" source="Oi7I57l-YlHCTCRPrvz8-16" target="Oi7I57l-YlHCTCRPrvz8-17">
          <mxGeometry relative="1" as="geometry" />
        </mxCell>
        <mxCell id="Oi7I57l-YlHCTCRPrvz8-16" value="Louvaine" style="text;html=1;align=center;verticalAlign=middle;resizable=0;points=[];autosize=1;strokeColor=#d79b00;fillColor=#ffe6cc;" vertex="1" parent="1">
          <mxGeometry x="334" y="591" width="67" height="26" as="geometry" />
        </mxCell>
        <mxCell id="Oi7I57l-YlHCTCRPrvz8-17" value="基于注意力机制的LSTM" style="text;html=1;align=center;verticalAlign=middle;resizable=0;points=[];autosize=1;strokeColor=#d79b00;fillColor=#ffe6cc;" vertex="1" parent="1">
          <mxGeometry x="294" y="647" width="146" height="26" as="geometry" />
        </mxCell>
        <mxCell id="Oi7I57l-YlHCTCRPrvz8-18" value="" style="endArrow=classic;html=1;rounded=0;entryX=0.502;entryY=0.038;entryDx=0;entryDy=0;entryPerimeter=0;" edge="1" parent="1" target="Oi7I57l-YlHCTCRPrvz8-16">
          <mxGeometry width="50" height="50" relative="1" as="geometry">
            <mxPoint x="367" y="569" as="sourcePoint" />
            <mxPoint x="581" y="645" as="targetPoint" />
          </mxGeometry>
        </mxCell>
        <mxCell id="Oi7I57l-YlHCTCRPrvz8-19" value="" style="endArrow=classic;html=1;rounded=0;" edge="1" parent="1" target="Oi7I57l-YlHCTCRPrvz8-17">
          <mxGeometry width="50" height="50" relative="1" as="geometry">
            <mxPoint x="367" y="617" as="sourcePoint" />
            <mxPoint x="366.74" y="641" as="targetPoint" />
          </mxGeometry>
        </mxCell>
        <mxCell id="Oi7I57l-YlHCTCRPrvz8-20" value="测试集" style="text;html=1;align=center;verticalAlign=middle;resizable=0;points=[];autosize=1;strokeColor=none;fillColor=none;" vertex="1" parent="1">
          <mxGeometry x="341" y="481" width="54" height="26" as="geometry" />
        </mxCell>
        <mxCell id="Oi7I57l-YlHCTCRPrvz8-21" value="" style="endArrow=classic;html=1;rounded=0;" edge="1" parent="1">
          <mxGeometry width="50" height="50" relative="1" as="geometry">
            <mxPoint x="366.77" y="512" as="sourcePoint" />
            <mxPoint x="366.77" y="542" as="targetPoint" />
          </mxGeometry>
        </mxCell>
        <mxCell id="Oi7I57l-YlHCTCRPrvz8-25" value="" style="endArrow=classic;html=1;rounded=0;" edge="1" parent="1">
          <mxGeometry width="50" height="50" relative="1" as="geometry">
            <mxPoint x="104.86000000000001" y="515" as="sourcePoint" />
            <mxPoint x="104.63" y="542" as="targetPoint" />
          </mxGeometry>
        </mxCell>
        <mxCell id="Oi7I57l-YlHCTCRPrvz8-26" value="训练集" style="text;html=1;align=center;verticalAlign=middle;resizable=0;points=[];autosize=1;strokeColor=none;fillColor=none;" vertex="1" parent="1">
          <mxGeometry x="78" y="484" width="54" height="26" as="geometry" />
        </mxCell>
        <mxCell id="Oi7I57l-YlHCTCRPrvz8-27" value="基于注意力机制的LSTM" style="text;html=1;align=center;verticalAlign=middle;resizable=0;points=[];autosize=1;strokeColor=#d79b00;fillColor=#ffe6cc;" vertex="1" parent="1">
          <mxGeometry x="78" y="542" width="146" height="26" as="geometry" />
        </mxCell>
        <mxCell id="Oi7I57l-YlHCTCRPrvz8-28" value="训练集不同是因为LSTM的数据集更具有针对性，有家族标记" style="text;html=1;align=center;verticalAlign=middle;resizable=0;points=[];autosize=1;strokeColor=none;fillColor=none;" vertex="1" parent="1">
          <mxGeometry x="73.5" y="424" width="338" height="26" as="geometry" />
        </mxCell>
        <mxCell id="Oi7I57l-YlHCTCRPrvz8-31" value="测试集" style="text;html=1;align=center;verticalAlign=middle;resizable=0;points=[];autosize=1;strokeColor=none;fillColor=none;" vertex="1" parent="1">
          <mxGeometry x="159" y="481" width="54" height="26" as="geometry" />
        </mxCell>
        <mxCell id="Oi7I57l-YlHCTCRPrvz8-33" value="" style="endArrow=classic;html=1;rounded=0;" edge="1" parent="1">
          <mxGeometry width="50" height="50" relative="1" as="geometry">
            <mxPoint x="184" y="509" as="sourcePoint" />
            <mxPoint x="184" y="541" as="targetPoint" />
          </mxGeometry>
        </mxCell>
        <mxCell id="Oi7I57l-YlHCTCRPrvz8-34" value="LSTM测试集是为了评估LSTM模型的准确性并与其他模型对比" style="text;html=1;align=center;verticalAlign=middle;resizable=0;points=[];autosize=1;strokeColor=none;fillColor=none;" vertex="1" parent="1">
          <mxGeometry x="72" y="450" width="346" height="26" as="geometry" />
        </mxCell>
      </root>
    </mxGraphModel>
  </diagram>
</mxfile>
